<svg width="244" height="180" viewBox="0 0 244 180" fill="none" xmlns="http://www.w3.org/2000/svg">
<g id="undraw_teaching_re_g7e3 1" clip-path="url(#clip0_13864_88361)">
<path id="Vector" d="M173.087 132.019H41.9615C40.7932 132.018 39.6731 131.553 38.8469 130.727C38.0208 129.901 37.556 128.781 37.5547 127.613V20.8424C37.556 19.674 38.0208 18.5539 38.8469 17.7278C39.6731 16.9016 40.7932 16.4369 41.9615 16.4355H173.087C174.255 16.4369 175.375 16.9016 176.201 17.7278C177.028 18.5539 177.492 19.674 177.494 20.8424V127.613C177.492 128.781 177.028 129.901 176.201 130.727C175.375 131.553 174.255 132.018 173.087 132.019Z" fill="#E6E6E6"/>
<path id="Vector_2" d="M44.9348 19.5723C43.8094 19.5736 42.7304 20.0212 41.9346 20.8171C41.1388 21.6129 40.6912 22.6919 40.6899 23.8173V124.64C40.6913 125.766 41.1389 126.845 41.9347 127.64C42.7305 128.436 43.8094 128.884 44.9348 128.885H134.685C145.204 128.873 155.288 124.689 162.726 117.251C170.164 109.814 174.348 99.7291 174.359 89.2105V23.8173C174.358 22.6919 173.911 21.6129 173.115 20.8171C172.319 20.0212 171.24 19.5736 170.115 19.5723L44.9348 19.5723Z" fill="white"/>
<path id="Vector_3" d="M149.176 64.9174H125.4C124.904 64.9168 124.429 64.7196 124.078 64.3689C123.728 64.0183 123.53 63.5429 123.53 63.047V51.2131C123.53 50.7173 123.728 50.2418 124.078 49.8912C124.429 49.5406 124.904 49.3433 125.4 49.3428H149.176C149.672 49.3433 150.148 49.5406 150.498 49.8912C150.849 50.2418 151.046 50.7173 151.047 51.2131C152.518 55.4009 152.727 59.38 151.047 63.047C151.046 63.5429 150.849 64.0183 150.498 64.3689C150.148 64.7196 149.672 64.9168 149.176 64.9174Z" fill="#E6E6E6"/>
<path id="Vector_4" d="M146.36 63.7732H126.159C125.738 63.7728 125.334 63.6052 125.036 63.3073C124.738 63.0094 124.571 62.6055 124.57 62.1842V52.1301C124.571 51.7088 124.738 51.3049 125.036 51.007C125.334 50.7091 125.738 50.5415 126.159 50.541H146.36C146.781 50.5415 147.185 50.7091 147.483 51.007C147.781 51.3049 147.948 51.7088 147.949 52.1301C149.312 55.7107 149.531 59.099 147.949 62.1842C147.948 62.6055 147.781 63.0094 147.483 63.3073C147.185 63.6052 146.781 63.7728 146.36 63.7732Z" fill="white"/>
<path id="Vector_5" d="M145.27 71.1155H129.254C128.783 71.1162 128.33 70.9297 127.997 70.5971C127.663 70.2645 127.475 69.813 127.474 69.3418C127.473 68.8707 127.66 68.4184 127.992 68.0846C128.324 67.7507 128.776 67.5626 129.247 67.5615H145.27C145.741 67.5624 146.192 67.75 146.525 68.0832C146.857 68.4163 147.044 68.8678 147.044 69.3385C147.044 69.8092 146.857 70.2607 146.525 70.5938C146.192 70.927 145.741 71.1146 145.27 71.1155Z" fill="#E6E6E6"/>
<path id="Vector_6" d="M134.501 53.2559C134.317 53.2565 134.141 53.33 134.011 53.4604C133.88 53.5908 133.807 53.7674 133.807 53.9517V61.4839C133.807 61.6055 133.839 61.725 133.899 61.8305C133.96 61.9359 134.047 62.0235 134.152 62.0846C134.257 62.1458 134.377 62.1782 134.498 62.1787C134.62 62.1791 134.74 62.1477 134.845 62.0874L141.494 58.2966C141.601 58.2358 141.689 58.1477 141.751 58.0414C141.813 57.935 141.845 57.8142 141.845 57.6912C141.844 57.5683 141.811 57.4476 141.749 57.3416C141.687 57.2356 141.598 57.148 141.49 57.0877L134.842 53.346C134.738 53.2871 134.621 53.256 134.501 53.2559Z" fill="#E6E6E6"/>
<path id="Vector_7" d="M231.496 165.589C231.129 165.122 230.631 164.777 230.066 164.596C229.501 164.415 228.895 164.408 228.326 164.575L228.201 164.612L227.085 168.971C226.918 168.321 226.56 166.855 226.334 165.419L226.315 165.301L226.204 165.349C225.037 165.865 223.94 166.526 222.939 167.317C221.165 168.74 219.722 170.532 218.711 172.569C217.7 174.605 217.144 176.838 217.083 179.111L217.081 179.194L217.079 179.247L217.227 179.194L220.399 178.06C221.803 178.184 223.217 177.993 224.538 177.5C225.859 177.008 227.054 176.226 228.034 175.213C229.316 173.862 230.195 172.123 231.044 170.441C231.293 169.951 231.548 169.445 231.809 168.959C232.099 168.43 232.225 167.826 232.169 167.226C232.113 166.625 231.879 166.055 231.496 165.589Z" fill="#F2F2F2"/>
<path id="Vector_8" d="M150.494 54.4489C150.558 54.7788 150.693 55.0907 150.89 55.3628C151.087 55.6348 151.342 55.8602 151.636 56.0232C151.929 56.1862 152.255 56.2829 152.591 56.3063C152.926 56.3297 153.262 56.2793 153.576 56.1587L163.055 67.1866L164.256 63.1155L154.857 53.0262C154.62 52.5128 154.202 52.1043 153.684 51.8782C153.165 51.652 152.582 51.624 152.044 51.7994C151.506 51.9747 151.051 52.3413 150.765 52.8297C150.48 53.318 150.383 53.8941 150.494 54.4489Z" fill="#FFB8B8"/>
<path id="Vector_9" d="M188.7 176.558H185.563L184.07 164.457H188.701L188.7 176.558Z" fill="#FFB6B6"/>
<path id="Vector_10" d="M188.616 175.534L185.266 174.171L185.171 174.132L183.321 175.534C182.277 175.534 181.276 175.949 180.537 176.687C179.799 177.425 179.384 178.427 179.384 179.471V179.599H189.499V175.534H188.616Z" fill="#2F2E41"/>
<path id="Vector_11" d="M211.08 176.558H207.943L206.45 164.457H211.08L211.08 176.558Z" fill="#FFB6B6"/>
<path id="Vector_12" d="M210.996 175.534L207.646 174.171L207.55 174.132L205.701 175.534C204.657 175.534 203.655 175.949 202.917 176.687C202.179 177.425 201.764 178.427 201.764 179.471V179.599H211.879V175.534H210.996Z" fill="#2F2E41"/>
<path id="Vector_13" d="M203.676 104.298C203.676 104.298 207.611 108.392 207.611 111.755C207.611 115.119 206.627 119.737 207.611 120.748C208.594 121.759 209.824 122.989 208.348 124.464C206.873 125.94 206.135 126.678 207.119 127.661C208.102 128.645 207.611 145.86 207.611 145.86L212.775 168.978H206.269L198.019 145.86L195.806 126.678L188.648 145.122L189.438 169.176L182.636 168.978L179.82 143.401C179.82 143.401 184.001 119.071 183.263 118.448C182.526 117.824 183.263 116.565 183.263 116.565L185.231 107.249L203.676 104.298Z" fill="#2F2E41"/>
<path id="Vector_14" d="M195.971 75.2734C195.971 75.2734 197.309 70.0011 191.145 68.4895C184.981 66.9779 167.36 65.0359 167.36 65.0359L158.456 55.5869L155.438 59.9688L165.421 72.3737L189.073 77.232L195.971 75.2734Z" fill="#3F3D56"/>
<path id="Vector_15" d="M156.905 59.6458C157.182 59.2875 157.398 58.8866 157.546 58.4589L158.823 55.3209L158.492 55.3071C158.033 55.2208 157.561 55.2324 157.107 55.3412C156.653 55.4499 156.228 55.6534 155.858 55.9382C155.488 56.223 155.183 56.5828 154.961 56.9939C154.74 57.405 154.609 57.8581 154.575 58.3237C154.533 58.7264 154.605 59.1327 154.784 59.4962C154.874 59.6764 155.007 59.8326 155.169 59.9519C155.332 60.0713 155.521 60.1504 155.72 60.1828C155.946 60.1949 156.172 60.1524 156.378 60.0589C156.585 59.9655 156.765 59.8238 156.905 59.6458Z" fill="#E6E6E6"/>
<path id="Vector_16" d="M183.975 108.506L183.237 113.854C183.237 113.854 184.713 115.439 185.451 115.241C186.188 115.042 188.894 113.889 188.894 113.889C188.894 113.889 192.091 115.637 193.812 115.835C195.534 116.033 204.633 114.844 204.879 114.25C205.125 113.656 207.984 111.33 207.984 111.33L206.847 104.544L183.975 108.506Z" fill="#E6E6E6"/>
<path id="Vector_17" d="M207.936 89.7956C207.936 89.7956 207.311 94.9528 207.803 95.4274C208.295 95.8996 207.311 98.8877 206.327 100.855C205.344 102.823 207.065 103.068 207.065 104.544C207.065 106.02 207.803 111.43 207.803 111.43C207.803 111.43 200.179 111.922 198.95 110.692C197.72 109.463 195.752 110.446 193.047 113.152C190.342 115.857 184.467 113.643 183.237 112.414C182.007 111.184 184.194 106.757 184.931 105.899C185.669 105.041 184.221 106.034 183.483 103.314C182.745 100.594 184.194 100.855 185.423 99.6254C186.653 98.3958 185.423 96.1824 184.44 93.969C183.456 91.7557 184.194 75.2783 184.194 71.3434C184.194 67.4085 189.604 66.9167 189.604 66.9167L191.746 64.2237L193.32 62.244L196.404 62.121L196.485 62.1185L199.468 61.998L200.917 63.6851L204.114 67.4085L207.803 68.1463C210.754 69.13 210.016 75.2783 210.016 75.2783L207.936 89.7956Z" fill="#3F3D56"/>
<path id="Vector_18" d="M196.252 61.0546C199.744 61.0546 202.574 58.2242 202.574 54.7329C202.574 51.2415 199.744 48.4111 196.252 48.4111C192.761 48.4111 189.931 51.2415 189.931 54.7329C189.931 58.2242 192.761 61.0546 196.252 61.0546Z" fill="#FFB6B6"/>
<path id="Vector_19" d="M203.582 52.606C201.843 51.5396 202.066 48.7514 200.39 47.7778C199.558 47.2978 198.621 47.0261 197.661 46.9857C196.701 46.9454 195.745 47.1377 194.875 47.5462C193.695 47.0413 192.281 47.4442 191.337 48.3558C190.393 49.2674 189.882 50.6123 189.732 51.9648C189.623 53.3237 189.72 54.6912 190.021 56.0208C190.115 55.4866 190.208 54.9524 190.302 54.4181L195.286 53.3289C194.845 53.7253 194.404 54.1217 193.962 54.5181C196.219 55.0319 198.588 54.6616 200.58 53.4832C202.75 54.4558 202.356 56.6401 200.452 59.5389C201.19 60.7685 205.563 53.821 203.582 52.606Z" fill="#2F2E41"/>
<path id="Vector_20" d="M200.917 63.6853C200.903 63.6967 200.888 63.7074 200.873 63.7172C200.352 64.0279 199.755 64.1896 199.149 64.1845C198.355 64.2507 197.566 64.0036 196.952 63.4959C196.63 63.1909 195.349 63.8353 194.508 64.1919C193.626 64.5575 192.637 64.5689 191.746 64.2238L193.32 62.2441L195.914 61.6689H196.562L199.468 61.9982L200.917 63.6853Z" fill="#E6E6E6"/>
<path id="Vector_21" d="M243.364 179.9L155.366 180C155.315 180 155.265 179.99 155.218 179.971C155.172 179.952 155.129 179.924 155.093 179.888C155.057 179.852 155.028 179.81 155.009 179.763C154.989 179.717 154.979 179.667 154.979 179.616C154.978 179.565 154.988 179.515 155.007 179.468C155.026 179.421 155.054 179.379 155.09 179.343C155.126 179.307 155.168 179.278 155.215 179.259C155.261 179.239 155.311 179.229 155.362 179.228H155.366L243.364 179.129C243.466 179.129 243.563 179.17 243.635 179.243C243.707 179.315 243.747 179.413 243.747 179.514C243.747 179.616 243.707 179.714 243.635 179.786C243.563 179.859 243.466 179.9 243.364 179.9Z" fill="#CACACA"/>
<path id="Vector_22" d="M137.999 50.4165H137.352V4.09668H162.822V4.74432H137.999V50.4165Z" fill="#3F3D56"/>
<path id="Vector_23" d="M182.631 0H165.468C164.352 0 163.281 0.443515 162.492 1.23297C161.702 2.02243 161.259 3.09317 161.259 4.20963C161.259 5.32609 161.702 6.39683 162.492 7.18629C163.281 7.97575 164.352 8.41926 165.468 8.41926H182.631C183.747 8.41926 184.818 7.97575 185.607 7.18629C186.397 6.39683 186.84 5.32609 186.84 4.20963C186.84 3.09317 186.397 2.02243 185.607 1.23297C184.818 0.443515 183.747 0 182.631 0Z" fill="#9D9CB5"/>
<path id="Vector_24" d="M137.3 54.6546C139.436 54.6546 141.168 52.9227 141.168 50.7863C141.168 48.6499 139.436 46.918 137.3 46.918C135.164 46.918 133.432 48.6499 133.432 50.7863C133.432 52.9227 135.164 54.6546 137.3 54.6546Z" fill="#9D9CB5"/>
<path id="Vector_25" d="M90.6855 65.321L107.656 61.3941L112.527 60.2668C113.136 60.1259 112.883 59.1878 112.273 59.3289L95.3031 63.2558L90.4321 64.3831C89.8228 64.5241 90.0759 65.4621 90.6855 65.321Z" fill="#F2F2F2"/>
<path id="Vector_26" d="M108.209 55.0946L117.294 59.2736C117.604 59.3808 117.894 59.5381 118.154 59.739C118.404 59.9846 118.222 60.2209 118.017 60.4348C117.406 61.0058 116.76 61.5388 116.083 62.0308L112.213 65.1775C111.727 65.5725 112.413 66.2617 112.894 65.8704L116.265 63.1298L117.951 61.7595C118.428 61.3713 119.009 60.9751 119.201 60.3566C119.604 59.0573 118.013 58.5407 117.129 58.134L113.173 56.3141L108.704 54.2583C108.141 53.9991 107.642 54.8335 108.209 55.0946Z" fill="#F2F2F2"/>
<path id="Vector_27" d="M233.577 86.9074C231.958 85.8101 229.992 85.4024 228.07 85.264C225.886 85.1452 223.696 85.1477 221.512 85.2717C219.244 85.3616 216.979 85.5258 214.72 85.7643C212.463 86.0031 210.216 86.316 207.979 86.7029C205.976 87.0148 203.993 87.4487 202.043 88.0022C200.197 88.5132 198.458 89.3529 196.91 90.481C195.551 91.5031 194.506 92.8858 193.893 94.4721C193.292 95.9598 193.19 97.6024 193.602 99.1531C193.822 99.9064 194.198 100.605 194.706 101.203C195.293 101.859 195.988 102.41 196.761 102.831C198.367 103.747 200.186 104.299 201.638 105.472C202.021 105.779 202.37 106.126 202.679 106.508C202.889 106.802 203.179 107.031 203.516 107.165C203.834 107.277 204.178 107.291 204.505 107.207C204.832 107.123 205.126 106.944 205.351 106.693C205.642 106.295 205.884 105.864 206.073 105.409L206.839 103.931C206.891 103.801 206.955 103.678 207.031 103.561C207.088 103.493 206.986 103.563 207.005 103.545C207.016 103.535 207.038 103.535 207.051 103.527C207.114 103.495 207.18 103.47 207.248 103.451C207.957 103.181 208.669 102.919 209.384 102.666C212.023 101.726 214.693 100.859 217.406 100.157C218.802 99.7822 220.218 99.486 221.647 99.2694C223.498 99.0058 225.377 99.0364 227.236 98.8562C229.238 98.6621 231.303 98.257 233.02 97.1547C234.439 96.2922 235.533 94.9834 236.129 93.4331C236.388 92.6943 236.476 91.9068 236.388 91.129C236.165 89.3692 235.016 87.883 233.577 86.9074Z" fill="#E6E6E6"/>
<path id="Vector_28" d="M230.264 87.8959C228.801 86.9043 227.024 86.5359 225.288 86.4109C223.314 86.3035 221.335 86.3058 219.361 86.4179C217.311 86.4991 215.265 86.6474 213.223 86.8629C211.184 87.0787 209.154 87.3615 207.132 87.7112C205.321 87.993 203.53 88.3851 201.767 88.8853C200.099 89.347 198.528 90.1058 197.129 91.1253C195.901 92.0489 194.956 93.2984 194.403 94.7319C193.86 96.0763 193.767 97.5607 194.14 98.9621C194.338 99.6428 194.678 100.274 195.137 100.815C195.667 101.408 196.296 101.905 196.995 102.285C198.445 103.114 200.089 103.612 201.402 104.673C201.748 104.95 202.063 105.264 202.342 105.608C202.532 105.875 202.795 106.081 203.098 106.203C203.386 106.303 203.697 106.316 203.992 106.24C204.287 106.164 204.554 106.003 204.757 105.776C205.02 105.416 205.239 105.026 205.41 104.615L206.102 103.279C206.148 103.162 206.206 103.051 206.275 102.945C206.327 102.884 206.234 102.947 206.252 102.93C206.262 102.921 206.282 102.922 206.293 102.915C206.35 102.886 206.41 102.863 206.472 102.846C207.112 102.602 207.755 102.365 208.401 102.137C210.786 101.287 213.199 100.503 215.651 99.8689C216.912 99.5305 218.192 99.2628 219.483 99.0671C221.156 98.8289 222.853 98.8565 224.534 98.6937C226.343 98.5184 228.209 98.1522 229.76 97.1561C231.043 96.3767 232.031 95.1939 232.57 93.793C232.804 93.1254 232.884 92.4137 232.805 91.7108C232.603 90.1206 231.564 88.7776 230.264 87.8959Z" fill="white"/>
<path id="Vector_29" d="M227.201 89.6865L203.367 94.0823C203.299 94.0953 203.229 94.0947 203.161 94.0806C203.093 94.0664 203.029 94.039 202.971 93.9999C202.914 93.9609 202.865 93.9108 202.827 93.8528C202.789 93.7947 202.763 93.7297 202.75 93.6615C202.737 93.5933 202.738 93.5232 202.753 93.4553C202.767 93.3874 202.795 93.3231 202.834 93.2659C202.873 93.2087 202.923 93.1598 202.981 93.122C203.04 93.0842 203.105 93.0583 203.173 93.0457L203.176 93.0451L227.009 88.6494C227.077 88.6368 227.147 88.6378 227.215 88.6522C227.283 88.6667 227.347 88.6944 227.404 88.7336C227.461 88.7729 227.51 88.823 227.548 88.8811C227.585 88.9392 227.611 89.0042 227.624 89.0723C227.636 89.1404 227.635 89.2103 227.621 89.278C227.606 89.3457 227.579 89.4099 227.539 89.467C227.5 89.524 227.45 89.5728 227.392 89.6104C227.334 89.6481 227.269 89.6739 227.201 89.6865Z" fill="#E6E6E6"/>
<path id="Vector_30" d="M227.787 92.8701L203.954 97.2658C203.886 97.2788 203.816 97.2782 203.748 97.2641C203.68 97.25 203.616 97.2226 203.558 97.1835C203.501 97.1444 203.452 97.0944 203.414 97.0363C203.376 96.9782 203.35 96.9132 203.337 96.8451C203.324 96.7769 203.325 96.7068 203.339 96.6389C203.354 96.5711 203.381 96.5067 203.421 96.4495C203.46 96.3923 203.51 96.3434 203.568 96.3056C203.626 96.2678 203.692 96.2419 203.76 96.2293L203.763 96.2287L227.596 91.833C227.664 91.8204 227.734 91.8214 227.802 91.8358C227.87 91.8503 227.934 91.8779 227.991 91.9172C228.048 91.9565 228.097 92.0066 228.134 92.0647C228.172 92.1228 228.198 92.1878 228.21 92.2559C228.223 92.324 228.222 92.3939 228.208 92.4616C228.193 92.5293 228.165 92.5935 228.126 92.6506C228.087 92.7076 228.037 92.7563 227.979 92.794C227.921 92.8317 227.856 92.8575 227.787 92.8701Z" fill="#E6E6E6"/>
<path id="Vector_31" d="M207.319 99.9362L204.542 100.449C204.405 100.473 204.263 100.443 204.148 100.363C204.034 100.284 203.955 100.162 203.93 100.025C203.904 99.888 203.934 99.7464 204.013 99.6313C204.092 99.5163 204.214 99.4372 204.351 99.4114L207.128 98.8991C207.265 98.8742 207.407 98.9047 207.522 98.984C207.637 99.0634 207.716 99.185 207.741 99.3223C207.766 99.4596 207.736 99.6013 207.657 99.7164C207.578 99.8315 207.457 99.9106 207.319 99.9362Z" fill="#E6E6E6"/>
<path id="Vector_32" d="M205.307 113.169C206.524 112.944 207.329 111.775 207.105 110.558C206.88 109.341 205.711 108.536 204.494 108.76C203.277 108.985 202.472 110.154 202.697 111.371C202.921 112.588 204.09 113.393 205.307 113.169Z" fill="#D1D3D4"/>
<path id="Vector_33" d="M81.9652 64.3171H61.608C60.663 64.316 59.7569 63.9401 59.0887 63.2719C58.4205 62.6036 58.0446 61.6976 58.0435 60.7526V47.336C58.0446 46.391 58.4205 45.485 59.0887 44.8167C59.7569 44.1485 60.663 43.7726 61.608 43.7715H81.9652C82.9102 43.7726 83.8162 44.1485 84.4844 44.8167C85.1527 45.485 85.5286 46.391 85.5297 47.336V60.7526C85.5286 61.6977 85.1527 62.6037 84.4844 63.2719C83.8162 63.9401 82.9102 64.316 81.9652 64.3171Z" fill="#E6E6E6"/>
<path id="Vector_34" d="M79.7277 63.5951H62.0105C61.188 63.5941 60.3995 63.267 59.8179 62.6854C59.2363 62.1038 58.9092 61.3153 58.9082 60.4928V48.8161C58.9092 47.9937 59.2363 47.2051 59.8179 46.6236C60.3995 46.042 61.188 45.7148 62.0105 45.7139H79.7277C80.5501 45.7148 81.3386 46.042 81.9202 46.6236C82.5018 47.2051 82.829 47.9937 82.8299 48.8161V60.4928C82.829 61.3153 82.5018 62.1038 81.9202 62.6854C81.3386 63.267 80.5501 63.5941 79.7277 63.5951Z" fill="white"/>
<path id="Vector_35" d="M84.8321 76.4055H58.7111C58.5497 76.4051 58.395 76.3408 58.281 76.2265C58.167 76.1122 58.103 75.9574 58.103 75.796C58.103 75.6346 58.167 75.4798 58.281 75.3655C58.395 75.2513 58.5497 75.1869 58.7111 75.1865H84.8321C84.9935 75.1869 85.1482 75.2513 85.2622 75.3655C85.3762 75.4798 85.4402 75.6346 85.4402 75.796C85.4402 75.9574 85.3762 76.1122 85.2622 76.2265C85.1482 76.3408 84.9935 76.4051 84.8321 76.4055Z" fill="#E6E6E6"/>
<path id="Vector_36" d="M84.8321 72.9221H58.7111C58.5497 72.9217 58.395 72.8574 58.281 72.7431C58.167 72.6288 58.103 72.474 58.103 72.3126C58.103 72.1512 58.167 71.9964 58.281 71.8821C58.395 71.7679 58.5497 71.7035 58.7111 71.7031H84.8321C84.9935 71.7035 85.1482 71.7679 85.2622 71.8821C85.3762 71.9964 85.4402 72.1512 85.4402 72.3126C85.4402 72.474 85.3762 72.6288 85.2622 72.7431C85.1482 72.8574 84.9935 72.9217 84.8321 72.9221Z" fill="#E6E6E6"/>
<path id="Vector_37" d="M84.8325 79.8879H58.7115C58.5499 79.8879 58.3949 79.8237 58.2806 79.7094C58.1663 79.5951 58.1021 79.4401 58.1021 79.2784C58.1021 79.1168 58.1663 78.9618 58.2806 78.8475C58.3949 78.7332 58.5499 78.6689 58.7115 78.6689H84.8325C84.9942 78.6689 85.1492 78.7332 85.2635 78.8475C85.3778 78.9618 85.442 79.1168 85.442 79.2784C85.442 79.4401 85.3778 79.5951 85.2635 79.7094C85.1492 79.8237 84.9942 79.8879 84.8325 79.8879Z" fill="#E6E6E6"/>
<path id="Vector_38" d="M84.8325 83.3703H58.7115C58.5499 83.3703 58.3949 83.3061 58.2806 83.1918C58.1663 83.0775 58.1021 82.9225 58.1021 82.7609C58.1021 82.5992 58.1663 82.4442 58.2806 82.3299C58.3949 82.2156 58.5499 82.1514 58.7115 82.1514H84.8325C84.9942 82.1514 85.1492 82.2156 85.2635 82.3299C85.3778 82.4442 85.442 82.5992 85.442 82.7609C85.442 82.9225 85.3778 83.0775 85.2635 83.1918C85.1492 83.3061 84.9942 83.3703 84.8325 83.3703Z" fill="#E6E6E6"/>
<path id="Vector_39" d="M84.8325 86.8537H58.7115C58.5499 86.8537 58.3949 86.7895 58.2806 86.6752C58.1663 86.5609 58.1021 86.4059 58.1021 86.2443C58.1021 86.0826 58.1663 85.9276 58.2806 85.8133C58.3949 85.699 58.5499 85.6348 58.7115 85.6348H84.8325C84.9942 85.6348 85.1492 85.699 85.2635 85.8133C85.3778 85.9276 85.442 86.0826 85.442 86.2443C85.442 86.4059 85.3778 86.5609 85.2635 86.6752C85.1492 86.7895 84.9942 86.8537 84.8325 86.8537Z" fill="#E6E6E6"/>
<path id="Vector_40" d="M84.8321 90.3362H58.7111C58.5497 90.3358 58.395 90.2714 58.281 90.1572C58.167 90.0429 58.103 89.8881 58.103 89.7267C58.103 89.5653 58.167 89.4105 58.281 89.2962C58.395 89.1819 58.5497 89.1176 58.7111 89.1172H84.8321C84.9935 89.1176 85.1482 89.1819 85.2622 89.2962C85.3762 89.4105 85.4402 89.5653 85.4402 89.7267C85.4402 89.8881 85.3762 90.0429 85.2622 90.1572C85.1482 90.2714 84.9935 90.3358 84.8321 90.3362Z" fill="#E6E6E6"/>
<path id="Vector_41" d="M70.4659 82.3486H71.1135V107.297H24.271V106.649H70.4659V82.3486Z" fill="#3F3D56"/>
<path id="Vector_42" d="M4.46207 111.393H21.6244C22.7409 111.393 23.8116 110.949 24.6011 110.16C25.3905 109.37 25.834 108.3 25.834 107.183C25.834 106.067 25.3905 104.996 24.6011 104.207C23.8116 103.417 22.7409 102.974 21.6244 102.974H4.46207C3.34561 102.974 2.27487 103.417 1.48542 104.207C0.695956 104.996 0.252441 106.067 0.252441 107.183C0.252441 108.3 0.695956 109.37 1.48542 110.16C2.27487 110.949 3.34561 111.393 4.46207 111.393Z" fill="#9D9CB5"/>
<path id="Vector_43" d="M71.2409 84.2288C73.3773 84.2288 75.1092 82.4969 75.1092 80.3605C75.1092 78.2241 73.3773 76.4922 71.2409 76.4922C69.1045 76.4922 67.3726 78.2241 67.3726 80.3605C67.3726 82.4969 69.1045 84.2288 71.2409 84.2288Z" fill="#9D9CB5"/>
<path id="Vector_44" d="M91.2349 81.435C96.9142 82.6421 95.4695 82.8777 101.149 84.0847L106.039 85.1241C106.651 85.2541 106.819 84.2971 106.207 84.167C100.527 82.9599 101.972 82.7244 96.2926 81.5173L91.4021 80.4779C90.7903 80.3479 90.6228 81.305 91.2349 81.435Z" fill="#F2F2F2"/>
<path id="Vector_45" d="M104.316 78.6114L110.779 86.2413C111.015 86.4696 111.212 86.7349 111.362 87.0267C111.485 87.3553 111.22 87.4922 110.944 87.5994C110.148 87.8582 109.337 88.0679 108.516 88.2275L103.678 89.4413C103.071 89.5937 103.4 90.5083 104.002 90.3573L108.216 89.3002L110.323 88.7716C110.92 88.6219 111.614 88.5088 112.05 88.0296C112.965 87.0228 111.741 85.8816 111.112 85.139L108.298 81.8163L105.118 78.0628C104.717 77.5897 103.912 78.1346 104.316 78.6114Z" fill="#F2F2F2"/>
<path id="Vector_46" d="M124.81 111.871C129.778 111.871 133.805 107.844 133.805 102.876C133.805 97.9074 129.778 93.8799 124.81 93.8799C119.841 93.8799 115.814 97.9074 115.814 102.876C115.814 107.844 119.841 111.871 124.81 111.871Z" fill="#E6E6E6"/>
<path id="Vector_47" d="M123.933 110.724C127.71 110.724 130.772 107.662 130.772 103.885C130.772 100.108 127.71 97.0459 123.933 97.0459C120.156 97.0459 117.094 100.108 117.094 103.885C117.094 107.662 120.156 110.724 123.933 110.724Z" fill="white"/>
<path id="Vector_48" d="M122.706 108.567C122.551 108.567 122.397 108.531 122.258 108.461C122.12 108.392 121.999 108.291 121.906 108.167L119.451 104.894C119.373 104.789 119.315 104.67 119.282 104.542C119.25 104.415 119.242 104.283 119.261 104.153C119.279 104.023 119.323 103.897 119.39 103.784C119.457 103.671 119.546 103.572 119.651 103.493C119.756 103.415 119.876 103.357 120.003 103.325C120.13 103.292 120.263 103.285 120.393 103.303C120.523 103.322 120.648 103.366 120.761 103.432C120.874 103.499 120.973 103.588 121.052 103.693L121.052 103.694L122.658 105.834L126.782 99.6488C126.855 99.5393 126.948 99.4452 127.057 99.3719C127.167 99.2986 127.289 99.2476 127.418 99.2217C127.547 99.1958 127.68 99.1956 127.809 99.2211C127.938 99.2466 128.061 99.2973 128.17 99.3702C128.28 99.4432 128.374 99.537 128.447 99.6463C128.52 99.7556 128.571 99.8782 128.596 100.007C128.622 100.136 128.622 100.269 128.597 100.398C128.571 100.527 128.52 100.65 128.447 100.759L123.539 108.121C123.45 108.255 123.33 108.365 123.19 108.442C123.05 108.519 122.894 108.562 122.734 108.567C122.725 108.567 122.715 108.567 122.706 108.567Z" fill="#E6E6E6"/>
<path id="Vector_49" d="M208.807 112.142C209.097 111.971 209.346 111.74 209.536 111.463C209.727 111.186 209.854 110.871 209.909 110.539C209.965 110.208 209.947 109.868 209.857 109.545C209.767 109.221 209.607 108.921 209.388 108.666L216.611 96.0439L212.373 96.2742L206.008 108.505C205.603 108.901 205.358 109.431 205.318 109.995C205.279 110.56 205.447 111.119 205.792 111.567C206.137 112.015 206.635 112.321 207.191 112.427C207.746 112.533 208.322 112.432 208.807 112.142Z" fill="#FFB8B8"/>
<path id="Vector_50" d="M200.672 67.9007C200.672 67.9007 208.322 65.4414 210.289 71.3437C212.257 77.2461 218.871 93.2316 218.871 93.2316L211.765 107.741L208.568 104.298L211.985 94.2153L202.147 79.4594L200.672 67.9007Z" fill="#3F3D56"/>
<path id="Vector_51" d="M212.008 106.259C211.778 105.87 211.486 105.52 211.144 105.224L208.703 102.875L208.567 103.178C208.317 103.572 208.153 104.014 208.085 104.476C208.018 104.938 208.049 105.409 208.177 105.858C208.304 106.307 208.525 106.724 208.825 107.082C209.125 107.439 209.497 107.73 209.917 107.934C210.275 108.122 210.679 108.205 211.083 108.175C211.284 108.157 211.478 108.092 211.649 107.985C211.82 107.878 211.964 107.732 212.068 107.56C212.163 107.354 212.207 107.128 212.197 106.902C212.186 106.676 212.122 106.455 212.008 106.259Z" fill="#E6E6E6"/>
<path id="Vector_52" d="M124.732 114.978H124.084V139.925H145.993V139.278H124.732V114.978Z" fill="#3F3D56"/>
<path id="Vector_53" d="M170.011 139.812C170.01 138.696 169.566 137.626 168.777 136.837C167.988 136.047 166.918 135.604 165.802 135.603H148.639C147.523 135.603 146.452 136.046 145.663 136.836C144.873 137.625 144.43 138.696 144.43 139.812C144.43 140.929 144.873 141.999 145.663 142.789C146.452 143.578 147.523 144.022 148.639 144.022H165.802C166.918 144.021 167.988 143.577 168.777 142.788C169.566 141.998 170.01 140.928 170.011 139.812Z" fill="#9D9CB5"/>
<path id="Vector_54" d="M123.957 116.858C126.094 116.858 127.825 115.126 127.825 112.989C127.825 110.853 126.094 109.121 123.957 109.121C121.821 109.121 120.089 110.853 120.089 112.989C120.089 115.126 121.821 116.858 123.957 116.858Z" fill="#9D9CB5"/>
</g>
<defs>
<clipPath id="clip0_13864_88361">
<rect width="243.495" height="180" fill="white" transform="translate(0.252441)"/>
</clipPath>
</defs>
</svg>
