<svg width="164" height="180" viewBox="0 0 164 180" fill="none" xmlns="http://www.w3.org/2000/svg">
<g clip-path="url(#clip0_12900_55659)">
<path d="M113.869 36.5181C102.505 34.7044 89.5628 33.7366 76.0847 33.7366C63.7498 33.7366 51.8659 34.5459 41.2301 36.072C41.2326 35.9086 41.235 35.7453 41.2422 35.582C41.5242 26.1016 45.5033 17.1075 52.329 10.5222C59.1547 3.93681 68.2856 0.28258 77.77 0.340522C87.2544 0.398465 96.34 4.16398 103.085 10.8322C109.829 17.5005 113.698 26.5425 113.864 36.0256C113.867 36.1914 113.869 36.3547 113.869 36.5181Z" fill="#5874DB"/>
<g opacity="0.1">
<path d="M82.3131 0.326978C77.2687 -0.35438 72.1374 0.0317942 67.2518 1.46047C62.3662 2.88915 57.8353 5.32844 53.9528 8.62027C50.0702 11.9121 46.9227 15.983 44.7141 20.5691C42.5056 25.1552 41.2853 30.1542 41.1324 35.2422C41.125 35.4055 41.1226 35.5688 41.1202 35.7321C44.28 35.2788 47.5521 34.8903 50.9114 34.5659C51.3222 26.0896 54.6876 18.0247 60.4235 11.7705C66.1595 5.51636 73.9039 1.46766 82.3131 0.326978Z" fill="white"/>
</g>
<path d="M129.758 39.3994C124.527 37.9812 119.221 36.8549 113.864 36.0256C105.085 34.6651 96.2344 33.8146 87.3567 33.4782C83.6586 33.327 79.8924 33.249 76.0847 33.249C73.0668 33.249 70.0732 33.2978 67.1211 33.3953C58.4614 33.6511 49.8222 34.3811 41.2422 35.5819C34.891 36.4565 28.6013 37.7315 22.4108 39.3994C7.97708 43.3899 0.02771 48.7383 0.02771 54.4572C0.02771 60.1761 7.97709 65.5245 22.4108 69.515C32.5615 72.3233 45.0768 74.2369 58.7135 75.1145C64.3422 75.4801 70.161 75.6654 76.0847 75.6654C82.0278 75.6654 87.8662 75.4777 93.512 75.112C105.922 74.31 117.404 72.6499 127.014 70.2366C127.065 70.222 127.114 70.2098 127.165 70.1976C127.813 70.0367 128.452 69.8685 129.083 69.7003C129.31 69.6369 129.534 69.576 129.758 69.515C129.771 69.5099 129.784 69.5058 129.797 69.5028C130.012 69.4443 130.224 69.3834 130.436 69.3249C130.86 69.203 131.28 69.0835 131.692 68.9592C131.711 68.9543 131.728 68.9495 131.745 68.9446C132.103 68.8373 132.455 68.7301 132.803 68.6228C133.088 68.5326 133.371 68.4449 133.651 68.3547C133.856 68.2888 134.059 68.223 134.259 68.1572C134.405 68.1085 134.549 68.0621 134.69 68.0134C134.883 67.95 135.075 67.8842 135.265 67.8184C135.346 67.7916 135.426 67.7647 135.504 67.7355C135.687 67.6745 135.865 67.6112 136.043 67.5478C136.235 67.4795 136.428 67.4088 136.618 67.3406C136.777 67.2845 136.935 67.226 137.091 67.1675C137.223 67.1163 137.352 67.0675 137.484 67.0188C137.842 66.8847 138.193 66.7458 138.539 66.6093C138.712 66.5386 138.885 66.4703 139.056 66.3996C139.224 66.3314 139.395 66.2607 139.561 66.19C139.833 66.0754 140.102 65.9608 140.365 65.8462C140.492 65.7877 140.621 65.7317 140.745 65.6781C140.84 65.6342 140.933 65.5927 141.028 65.5489C141.096 65.5196 141.165 65.4879 141.23 65.4562C141.477 65.3441 141.72 65.2295 141.959 65.1149C142.876 64.6762 143.732 64.2276 144.526 63.7693C149.511 60.9148 152.142 57.7481 152.142 54.4572C152.142 48.7383 144.192 43.3899 129.758 39.3994ZM129.627 69.047C119.464 71.8577 106.915 73.7713 93.2413 74.6416C87.6809 74.995 81.9328 75.1779 76.0847 75.1779C70.256 75.1779 64.5274 74.9975 58.9841 74.644C45.2889 73.7762 32.72 71.8626 22.5425 69.047C8.33787 65.1174 0.515255 59.9372 0.515255 54.4572C0.516048 53.973 0.576656 53.4907 0.695703 53.0214C1.93885 48.0777 9.58601 43.4509 22.5425 39.8674C28.6862 38.2126 34.9276 36.9449 41.2301 36.0719C49.8616 34.8643 58.553 34.1319 67.2649 33.878C70.1708 33.7829 73.1107 33.7358 76.0847 33.7366C79.8412 33.7366 83.5563 33.8121 87.208 33.9584C96.1374 34.2918 105.04 35.1465 113.869 36.518C119.18 37.3436 124.44 38.4618 129.627 39.8674C142.581 43.4509 150.226 48.0752 151.471 53.0165C151.592 53.4872 151.654 53.9712 151.654 54.4572C151.654 59.9372 143.831 65.1174 129.627 69.047Z" fill="#3F3D56"/>
<path d="M152.003 54.6792C152.003 57.936 149.319 61.0173 144.526 63.7695C143.729 64.2278 142.871 64.6763 141.959 65.1151C141.72 65.2297 141.477 65.3442 141.23 65.4564C141.165 65.4881 141.096 65.5198 141.028 65.549C140.933 65.5929 140.84 65.6343 140.745 65.6782C140.621 65.7318 140.492 65.7879 140.365 65.8464C140.102 65.961 139.834 66.0756 139.561 66.1901C139.395 66.2608 139.224 66.3315 139.056 66.3998C138.885 66.4705 138.712 66.5387 138.539 66.6094C138.193 66.7459 137.842 66.8849 137.484 67.019C137.352 67.0677 137.223 67.1165 137.091 67.1677C136.935 67.2262 136.777 67.2847 136.618 67.3407C136.428 67.409 136.235 67.4797 136.043 67.5479C135.865 67.6113 135.687 67.6747 135.504 67.7356C135.426 67.7649 135.346 67.7917 135.265 67.8185C135.075 67.8843 134.883 67.9502 134.69 68.0135C134.549 68.0623 134.405 68.1086 134.259 68.1574C134.059 68.2232 133.856 68.289 133.651 68.3548C133.371 68.445 133.088 68.5328 132.803 68.623C132.455 68.7302 132.103 68.8375 131.745 68.9448C131.728 68.9496 131.711 68.9545 131.692 68.9594C131.28 69.0837 130.86 69.2032 130.436 69.325C130.224 69.3835 130.012 69.4445 129.797 69.503C129.784 69.5059 129.771 69.51 129.758 69.5152C129.534 69.5761 129.31 69.6371 129.083 69.7004C128.454 69.8662 127.813 70.0344 127.165 70.1977C127.114 70.2099 127.065 70.2221 127.014 70.2367C117.665 72.5721 106.195 74.2736 93.5022 75.0951C87.9418 75.4535 82.1448 75.6436 76.1895 75.6436C70.1806 75.6436 64.3348 75.451 58.7305 75.0854C25.2752 72.9036 0.376343 64.5959 0.376343 54.6792C0.378977 54.0758 0.470952 53.4761 0.649277 52.8997C0.663918 52.9411 0.678557 52.9801 0.695699 53.0215C4.17422 62.1581 28.8612 69.542 60.8928 71.3435C65.7999 71.6214 70.8826 71.7652 76.0847 71.7652C81.3088 71.7652 86.4108 71.6189 91.3375 71.341C123.342 69.5322 148.005 62.1459 151.471 53.0167C151.53 52.8704 151.581 52.7241 151.625 52.5779C151.872 53.251 152 53.9621 152.003 54.6792Z" fill="#3F3D56"/>
<path d="M22.3741 52.0551C18.3171 52.0551 14.0052 51.1823 14.0052 49.5645C14.0052 47.9468 18.3171 47.074 22.3741 47.074C26.4311 47.074 30.743 47.9468 30.743 49.5645C30.743 51.1823 26.4312 52.0551 22.3741 52.0551ZM22.3741 47.5615C17.7295 47.5615 14.4928 48.6172 14.4928 49.5645C14.4928 50.5119 17.7295 51.5676 22.3741 51.5676C27.0187 51.5676 30.2554 50.5119 30.2554 49.5645C30.2554 48.6172 27.0187 47.5615 22.3741 47.5615Z" fill="#3F3D56"/>
<path d="M39.682 63.5124C35.625 63.5124 31.3131 62.6396 31.3131 61.0218C31.3131 59.4041 35.625 58.5312 39.682 58.5312C43.739 58.5312 48.0509 59.4041 48.0509 61.0218C48.0509 62.6396 43.739 63.5124 39.682 63.5124ZM39.682 59.0188C35.0374 59.0188 31.8007 60.0745 31.8007 61.0218C31.8007 61.9692 35.0374 63.0248 39.682 63.0248C44.3265 63.0248 47.5633 61.9692 47.5633 61.0218C47.5633 60.0745 44.3265 59.0188 39.682 59.0188Z" fill="#3F3D56"/>
<path d="M129.634 52.0551C125.577 52.0551 121.265 51.1823 121.265 49.5645C121.265 47.9468 125.577 47.074 129.634 47.074C133.691 47.074 138.003 47.9468 138.003 49.5645C138.003 51.1823 133.691 52.0551 129.634 52.0551ZM129.634 47.5615C124.989 47.5615 121.753 48.6172 121.753 49.5645C121.753 50.5119 124.989 51.5676 129.634 51.5676C134.279 51.5676 137.515 50.5119 137.515 49.5645C137.515 48.6172 134.279 47.5615 129.634 47.5615Z" fill="#3F3D56"/>
<path d="M112.326 63.5124C108.269 63.5124 103.957 62.6396 103.957 61.0218C103.957 59.4041 108.269 58.5312 112.326 58.5312C116.383 58.5312 120.695 59.4041 120.695 61.0218C120.695 62.6396 116.383 63.5124 112.326 63.5124ZM112.326 59.0188C107.682 59.0188 104.445 60.0745 104.445 61.0218C104.445 61.9692 107.682 63.0248 112.326 63.0248C116.971 63.0248 120.207 61.9692 120.207 61.0218C120.207 60.0745 116.971 59.0188 112.326 59.0188Z" fill="#3F3D56"/>
<path d="M76.004 68.8754C71.947 68.8754 67.6352 68.0026 67.6352 66.3849C67.6352 64.7671 71.947 63.8943 76.004 63.8943C80.0611 63.8943 84.3729 64.7671 84.3729 66.3849C84.3729 68.0026 80.0611 68.8754 76.004 68.8754ZM76.004 64.3818C71.3594 64.3818 68.1227 65.4375 68.1227 66.3849C68.1227 67.3322 71.3594 68.3879 76.004 68.3879C80.6486 68.3879 83.8854 67.3322 83.8854 66.3849C83.8854 65.4375 80.6486 64.3818 76.004 64.3818Z" fill="#3F3D56"/>
<path d="M82.1736 120.111C87.8298 120.111 92.415 115.525 92.415 109.869C92.415 104.213 87.8298 99.6277 82.1736 99.6277C76.5174 99.6277 71.9321 104.213 71.9321 109.869C71.9321 115.525 76.5174 120.111 82.1736 120.111Z" fill="#2F2E41"/>
<path d="M78.2791 116.598L73.2947 119.094L74.6878 121.876L79.6722 119.38L78.2791 116.598Z" fill="#2F2E41"/>
<path d="M75.345 121.594C75.6406 121.145 74.9111 120.143 73.7156 119.355C72.5201 118.567 71.3114 118.291 71.0158 118.739C70.7202 119.188 71.4497 120.19 72.6452 120.978C73.8407 121.766 75.0494 122.042 75.345 121.594Z" fill="#2F2E41"/>
<path d="M86.068 116.598L84.6749 119.38L89.6593 121.876L91.0524 119.094L86.068 116.598Z" fill="#2F2E41"/>
<path d="M91.7019 120.978C92.8974 120.19 93.6269 119.188 93.3313 118.739C93.0358 118.291 91.827 118.567 90.6315 119.355C89.436 120.143 88.7065 121.145 89.0021 121.594C89.2977 122.042 90.5065 121.766 91.7019 120.978Z" fill="#2F2E41"/>
<path d="M81.4566 110.864C83.3897 110.864 84.9568 109.297 84.9568 107.364C84.9568 105.431 83.3897 103.864 81.4566 103.864C79.5235 103.864 77.9564 105.431 77.9564 107.364C77.9564 109.297 79.5235 110.864 81.4566 110.864Z" fill="white"/>
<path d="M82.308 106.693C82.7618 106.239 82.7591 105.501 82.3022 105.044C81.8452 104.587 81.107 104.585 80.6532 105.038C80.1995 105.492 80.2021 106.23 80.6591 106.687C81.116 107.144 81.8543 107.147 82.308 106.693Z" fill="#3F3D56"/>
<path d="M90.2527 98.7276C90.4067 94.9361 87.1389 91.7246 82.9539 91.5546C78.7689 91.3846 75.2515 94.3205 75.0975 98.112C74.9434 101.904 77.8525 102.765 82.0376 102.935C86.2226 103.105 90.0986 102.519 90.2527 98.7276Z" fill="#5874DB"/>
<path d="M96.1561 115.232C96.8297 114.654 95.8824 112.445 94.0403 110.299C92.1982 108.154 90.1587 106.883 89.4851 107.461C88.8114 108.039 89.7587 110.248 91.6008 112.394C93.443 114.54 95.4824 115.81 96.1561 115.232Z" fill="#2F2E41"/>
<path d="M72.775 112.394C74.6171 110.248 75.5644 108.039 74.8907 107.461C74.2171 106.883 72.1776 108.154 70.3355 110.299C68.4934 112.445 67.5461 114.654 68.2197 115.232C68.8934 115.81 70.9328 114.539 72.775 112.394Z" fill="#2F2E41"/>
<path d="M84.9864 113.905C85.0972 114.514 84.9616 115.142 84.6095 115.651C84.2573 116.16 83.7174 116.508 83.1085 116.619C82.4997 116.73 81.8717 116.594 81.3628 116.242C80.8539 115.89 80.5057 115.35 80.3949 114.741L80.394 114.737C80.1645 113.468 81.1449 113.02 82.4131 112.79C83.6812 112.56 84.7568 112.637 84.9864 113.905Z" fill="white"/>
<path d="M64.8712 120.763C64.7418 120.763 64.6178 120.712 64.5264 120.621C64.435 120.529 64.3836 120.405 64.3836 120.276V91.5107C64.3836 91.3814 64.435 91.2574 64.5264 91.166C64.6178 91.0746 64.7418 91.0232 64.8712 91.0232C65.0005 91.0232 65.1245 91.0746 65.2159 91.166C65.3073 91.2574 65.3587 91.3814 65.3587 91.5107V120.276C65.3587 120.405 65.3073 120.529 65.2159 120.621C65.1245 120.712 65.0005 120.763 64.8712 120.763Z" fill="#CCCCCC"/>
<path d="M57.558 146.603C57.4287 146.603 57.3047 146.552 57.2132 146.46C57.1218 146.369 57.0704 146.245 57.0704 146.116V125.151C57.0704 125.022 57.1218 124.898 57.2132 124.806C57.3047 124.715 57.4287 124.664 57.558 124.664C57.6873 124.664 57.8113 124.715 57.9027 124.806C57.9942 124.898 58.0455 125.022 58.0455 125.151V146.116C58.0455 146.245 57.9941 146.369 57.9027 146.46C57.8113 146.552 57.6873 146.603 57.558 146.603Z" fill="#CCCCCC"/>
<path d="M76.3284 129.295C76.1991 129.295 76.0751 129.244 75.9837 129.153C75.8923 129.061 75.8409 128.937 75.8409 128.808V100.043C75.8409 99.9134 75.8922 99.7894 75.9837 99.698C76.0751 99.6065 76.1991 99.5552 76.3284 99.5552C76.4577 99.5552 76.5817 99.6065 76.6732 99.698C76.7646 99.7894 76.816 99.9134 76.816 100.043V128.808C76.816 128.937 76.7646 129.061 76.6732 129.153C76.5817 129.244 76.4577 129.295 76.3284 129.295Z" fill="#CCCCCC"/>
<path d="M69.259 150.016C69.1297 150.016 69.0057 149.965 68.9143 149.873C68.8229 149.782 68.7715 149.658 68.7715 149.528V137.827C68.7715 137.698 68.8228 137.574 68.9143 137.483C69.0057 137.391 69.1297 137.34 69.259 137.34C69.3883 137.34 69.5123 137.391 69.6038 137.483C69.6952 137.574 69.7466 137.698 69.7466 137.827V149.528C69.7466 149.658 69.6952 149.782 69.6038 149.873C69.5123 149.965 69.3883 150.016 69.259 150.016Z" fill="#CCCCCC"/>
<path d="M79.2537 90.048C79.1244 90.048 79.0004 89.9966 78.909 89.9052C78.8175 89.8137 78.7662 89.6897 78.7662 89.5604V77.8594C78.7662 77.7301 78.8175 77.6061 78.909 77.5146C79.0004 77.4232 79.1244 77.3718 79.2537 77.3718C79.383 77.3718 79.507 77.4232 79.5985 77.5146C79.6899 77.6061 79.7413 77.7301 79.7413 77.8594V89.5604C79.7413 89.6897 79.6899 89.8137 79.5985 89.9052C79.507 89.9966 79.383 90.048 79.2537 90.048Z" fill="#CCCCCC"/>
<path d="M54.8765 95.1671C54.7472 95.1671 54.6232 95.1158 54.5317 95.0243C54.4403 94.9329 54.3889 94.8089 54.3889 94.6796V82.9785C54.3889 82.8492 54.4403 82.7252 54.5317 82.6338C54.6231 82.5423 54.7472 82.491 54.8765 82.491C55.0058 82.491 55.1298 82.5423 55.2212 82.6338C55.3126 82.7252 55.364 82.8492 55.364 82.9785V94.6796C55.364 94.8089 55.3126 94.9329 55.2212 95.0243C55.1298 95.1158 55.0058 95.1671 54.8765 95.1671Z" fill="#CCCCCC"/>
<path d="M97.2928 96.3861C97.1635 96.3861 97.0395 96.3347 96.9481 96.2433C96.8567 96.1519 96.8053 96.0279 96.8053 95.8986V84.1975C96.8053 84.0682 96.8567 83.9442 96.9481 83.8528C97.0395 83.7613 97.1635 83.71 97.2928 83.71C97.4221 83.71 97.5461 83.7613 97.6376 83.8528C97.729 83.9442 97.7804 84.0682 97.7804 84.1975V95.8986C97.7804 96.0279 97.729 96.1519 97.6376 96.2433C97.5462 96.3347 97.4221 96.3861 97.2928 96.3861Z" fill="#CCCCCC"/>
<path d="M96.3177 132.952C96.1884 132.952 96.0644 132.901 95.973 132.809C95.8816 132.718 95.8302 132.594 95.8302 132.464V118.326C95.8302 118.196 95.8816 118.072 95.973 117.981C96.0644 117.889 96.1884 117.838 96.3177 117.838C96.447 117.838 96.5711 117.889 96.6625 117.981C96.7539 118.072 96.8053 118.196 96.8053 118.326V132.464C96.8053 132.594 96.7539 132.718 96.6625 132.809C96.5711 132.901 96.447 132.952 96.3177 132.952Z" fill="#CCCCCC"/>
<path d="M86.5669 145.384C86.4376 145.384 86.3136 145.333 86.2222 145.242C86.1307 145.15 86.0794 145.026 86.0793 144.897V123.932C86.0793 123.803 86.1307 123.679 86.2221 123.588C86.3136 123.496 86.4376 123.445 86.5669 123.445C86.6962 123.445 86.8202 123.496 86.9116 123.588C87.0031 123.679 87.0544 123.803 87.0544 123.932V144.897C87.0544 145.026 87.0031 145.15 86.9116 145.242C86.8202 145.333 86.6962 145.384 86.5669 145.384Z" fill="#CCCCCC"/>
<path d="M88.5171 109.55C88.3878 109.55 88.2638 109.498 88.1723 109.407C88.0809 109.316 88.0295 109.192 88.0295 109.062V80.2971C88.0295 80.1678 88.0809 80.0438 88.1723 79.9524C88.2638 79.8609 88.3878 79.8096 88.5171 79.8096C88.6464 79.8096 88.7704 79.8609 88.8618 79.9524C88.9533 80.0438 89.0046 80.1678 89.0046 80.2971V109.062C89.0046 109.192 88.9533 109.316 88.8618 109.407C88.7704 109.498 88.6464 109.55 88.5171 109.55Z" fill="#CCCCCC"/>
<path d="M148.288 170.76C148.986 170.176 148.043 167.9 146.182 165.678C144.321 163.455 142.246 162.126 141.549 162.711C140.851 163.295 141.794 165.571 143.655 167.793C145.516 170.016 147.591 171.345 148.288 170.76Z" fill="#2F2E41"/>
<path d="M143.712 168.233C145.545 162.732 142.573 156.786 137.072 154.953C131.571 153.119 125.626 156.092 123.792 161.593C121.959 167.093 124.931 173.039 130.432 174.872C135.933 176.706 141.878 173.733 143.712 168.233Z" fill="#2F2E41"/>
<path d="M138.196 173.152H135.006V178.866H138.196V173.152Z" fill="#2F2E41"/>
<path d="M131.817 173.152H128.627V178.866H131.817V173.152Z" fill="#2F2E41"/>
<path d="M135.538 179.929C137.006 179.929 138.196 179.483 138.196 178.933C138.196 178.382 137.006 177.936 135.538 177.936C134.07 177.936 132.88 178.382 132.88 178.933C132.88 179.483 134.07 179.929 135.538 179.929Z" fill="#2F2E41"/>
<path d="M129.159 179.797C130.627 179.797 131.817 179.35 131.817 178.8C131.817 178.249 130.627 177.803 129.159 177.803C127.691 177.803 126.501 178.249 126.501 178.8C126.501 179.35 127.691 179.797 129.159 179.797Z" fill="#2F2E41"/>
<path d="M130.455 151.715C131.393 147.94 135.531 145.718 139.698 146.753C143.865 147.788 146.483 151.687 145.546 155.462C144.608 159.238 141.498 159.25 137.331 158.215C133.164 157.18 129.518 155.491 130.455 151.715Z" fill="#CCCCCC"/>
<path d="M126.67 162.291C127.06 161.468 125.253 159.794 122.633 158.552C120.014 157.31 117.574 156.969 117.184 157.792C116.794 158.614 118.601 160.288 121.221 161.53C123.84 162.772 126.28 163.113 126.67 162.291Z" fill="#2F2E41"/>
<path d="M132.182 166.197C134.116 166.197 135.683 164.63 135.683 162.697C135.683 160.764 134.116 159.197 132.182 159.197C130.249 159.197 128.682 160.764 128.682 162.697C128.682 164.63 130.249 166.197 132.182 166.197Z" fill="white"/>
<path d="M130.744 162.609C131.388 162.609 131.911 162.087 131.911 161.443C131.911 160.798 131.388 160.276 130.744 160.276C130.1 160.276 129.577 160.798 129.577 161.443C129.577 162.087 130.1 162.609 130.744 162.609Z" fill="#3F3D56"/>
<path d="M132.152 171.468C132.96 171.468 133.615 170.813 133.615 170.005C133.615 169.198 132.96 168.543 132.152 168.543C131.345 168.543 130.69 169.198 130.69 170.005C130.69 170.813 131.345 171.468 132.152 171.468Z" fill="white"/>
<path d="M163.729 180H106.198C106.134 180 106.072 179.974 106.026 179.929C105.98 179.883 105.954 179.821 105.954 179.756C105.954 179.692 105.98 179.63 106.026 179.584C106.072 179.538 106.134 179.512 106.198 179.512H163.729C163.793 179.512 163.855 179.538 163.901 179.584C163.947 179.63 163.972 179.692 163.972 179.756C163.972 179.821 163.947 179.883 163.901 179.929C163.855 179.974 163.793 180 163.729 180Z" fill="#3F3D56"/>
</g>
<defs>
<clipPath id="clip0_12900_55659">
<rect width="163.945" height="180" fill="white" transform="translate(0.02771)"/>
</clipPath>
</defs>
</svg>
