<svg width="48" height="48" viewBox="0 0 48 48" fill="none" xmlns="http://www.w3.org/2000/svg">
<path d="M23.9991 10.7206C22.294 10.7206 20.9117 9.33839 20.9117 7.63327V5.05664H27.0867V7.63327C27.0865 9.3382 25.7042 10.7206 23.9991 10.7206Z" fill="#FFB69F"/>
<path d="M27.63 1.21375L26.298 1.909C25.9558 2.08768 25.5754 2.18087 25.1895 2.18087H22.3363C21.3459 2.18087 20.5909 3.06737 20.7486 4.045L20.9117 5.05675H27.0866C28.0429 4.03787 28.2714 2.53487 27.6613 1.27768L27.63 1.21375Z" fill="#7C7B7A"/>
<path d="M31.2974 14.4705V15.8317H16.7024V14.4705C16.7024 12.4005 18.3805 10.7205 20.4524 10.7205H27.5474C29.6193 10.7205 31.2974 12.4005 31.2974 14.4705Z" fill="#F0C020"/>
<path d="M31.2974 14.5193H16.7024V15.8318H31.2974V14.5193Z" fill="#E8A61E"/>
<path d="M41.7499 46.7861H6.24982C5.21425 46.7861 4.37482 45.9467 4.37482 44.9111V21.3326H43.6248V44.9111C43.6249 45.9467 42.7855 46.7861 41.7499 46.7861Z" fill="#EFEFEF"/>
<path d="M43.6255 17.7068V21.333H4.37427V17.7068C4.37427 16.6718 5.21427 15.8318 6.24927 15.8318H10.7136V16.5274C10.7136 17.0449 11.1336 17.4649 11.6511 17.4649H13.723C14.2405 17.4649 14.6605 17.0449 14.6605 16.5274V15.8318H33.3393V16.5274C33.3393 17.0449 33.7593 17.4649 34.2768 17.4649H36.3486C36.8661 17.4649 37.2861 17.0449 37.2861 16.5274V15.8318H41.7505C42.7855 15.8318 43.6255 16.6718 43.6255 17.7068Z" fill="#FC5D3D"/>
<path d="M14.6605 15.1361V16.5274C14.6605 17.0449 14.2405 17.4649 13.723 17.4649H11.6511C11.1336 17.4649 10.7136 17.0449 10.7136 16.5274V15.1361C10.7136 14.6186 11.1336 14.1986 11.6511 14.1986H13.723C14.2405 14.1986 14.6605 14.6186 14.6605 15.1361Z" fill="#FFB69F"/>
<path d="M37.2861 15.1361V16.5274C37.2861 17.0449 36.8661 17.4649 36.3486 17.4649H34.2767C33.7592 17.4649 33.3392 17.0449 33.3392 16.5274V15.1361C33.3392 14.6186 33.7592 14.1986 34.2767 14.1986H36.3486C36.8661 14.1986 37.2861 14.6186 37.2861 15.1361Z" fill="#FFB69F"/>
<path d="M18.7921 32.3561H9.31396C8.79628 32.3561 8.37646 31.9363 8.37646 31.4186V27.9186C8.37646 27.4009 8.79628 26.9811 9.31396 26.9811H18.7921V32.3561Z" fill="#72C2E9"/>
<path d="M29.2077 26.9811H18.7921V32.3561H29.2077V26.9811Z" fill="#72C2E9"/>
<path d="M38.6856 32.3561H29.2075V26.9811H38.6856C39.2033 26.9811 39.6231 27.4009 39.6231 27.9186V31.4186C39.6231 31.9363 39.2035 32.3561 38.6856 32.3561Z" fill="#72C2E9"/>
<path d="M18.7921 43.3793H9.31396C8.79628 43.3793 8.37646 42.9595 8.37646 42.4418V38.9418C8.37646 38.4241 8.79628 38.0043 9.31396 38.0043H18.7921V43.3793Z" fill="#72C2E9"/>
<path d="M29.2077 38.0043H18.7921V43.3793H29.2077V38.0043Z" fill="#72C2E9"/>
<path d="M38.6856 43.3793H29.2075V38.0043H38.6856C39.2033 38.0043 39.6231 38.4241 39.6231 38.9418V42.4418C39.6231 42.9595 39.2035 43.3793 38.6856 43.3793Z" fill="#7C7B7A"/>
<path d="M41.7497 45.3799H6.25C5.99106 45.3799 5.78125 45.1701 5.78125 44.9111C5.78125 44.6522 5.99106 44.4424 6.25 44.4424H41.281V23.2076C41.281 22.9487 41.4908 22.7389 41.7497 22.7389C42.0087 22.7389 42.2185 22.9487 42.2185 23.2076V44.9111C42.2185 45.1701 42.0087 45.3799 41.7497 45.3799Z" fill="white"/>
<path d="M41.7497 20.2549H9.14162C8.88269 20.2549 8.67287 20.0451 8.67287 19.7862C8.67287 19.5272 8.88269 19.3174 9.14162 19.3174H41.281V17.7068C41.281 17.4478 41.4908 17.238 41.7497 17.238C42.0087 17.238 42.2185 17.4478 42.2185 17.7068V19.7862C42.2185 20.0451 42.0087 20.2549 41.7497 20.2549ZM7.26663 20.2549H6.25C5.99106 20.2549 5.78125 20.0451 5.78125 19.7862C5.78125 19.5272 5.99106 19.3174 6.25 19.3174H7.26663C7.52556 19.3174 7.73538 19.5272 7.73538 19.7862C7.73538 20.0451 7.52556 20.2549 7.26663 20.2549Z" fill="#FFCBC3"/>
<path d="M25.7724 7.5481C25.7724 7.28916 25.5625 7.07935 25.3036 7.07935C25.0447 7.07935 24.8349 7.28916 24.8349 7.5481C24.8349 8.0086 24.4602 8.38303 23.9999 8.38303C23.5396 8.38303 23.165 8.00841 23.165 7.5481C23.165 7.28916 22.9552 7.07935 22.6962 7.07935C22.4373 7.07935 22.2275 7.28916 22.2275 7.5481C22.2275 8.52535 23.0225 9.32053 23.9999 9.32053C24.9774 9.32053 25.7724 8.52535 25.7724 7.5481Z" fill="black"/>
<path d="M4.37427 35.0768C4.63315 35.0768 4.84302 34.8669 4.84302 34.608C4.84302 34.3491 4.63315 34.1393 4.37427 34.1393C4.11538 34.1393 3.90552 34.3491 3.90552 34.608C3.90552 34.8669 4.11538 35.0768 4.37427 35.0768Z" fill="black"/>
<path d="M6.24939 47.2551H41.7506C43.0425 47.2551 44.0925 46.2032 44.0944 44.9113C44.0944 44.3329 44.0944 18.3026 44.0944 17.7069C44.0944 16.4145 43.0431 15.3632 41.7506 15.3632H40.092V13.6131C40.092 13.3541 39.8822 13.1443 39.6233 13.1443C39.3643 13.1443 39.1545 13.3541 39.1545 13.6131V15.3632H37.755V15.1363C37.755 14.3608 37.1243 13.7301 36.3488 13.7301H34.2769C33.5014 13.7301 32.8706 14.3608 32.8706 15.1363V15.3632H31.7663V14.4707C31.7663 13.9044 31.6556 13.3551 31.4381 12.8357C31.3405 12.6051 31.0575 12.4869 30.8231 12.5863C30.5781 12.6907 30.4761 12.9699 30.5738 13.1994C30.7425 13.6026 30.8288 14.0301 30.8288 14.4707V15.3632H24.4688V13.6131C24.4688 13.3541 24.259 13.1443 24 13.1443C23.7411 13.1443 23.5313 13.3541 23.5313 13.6131V15.3632H17.1713V14.4707C17.175 12.6651 18.6469 11.1932 20.4525 11.1894C20.9734 11.1894 18.9218 11.1894 27.5475 11.1894C27.7388 11.1894 27.9281 11.2063 28.1138 11.2382C28.3671 11.2813 28.6125 11.1088 28.6575 10.8576C28.7001 10.6026 28.534 10.3609 28.275 10.3138C28.0369 10.2726 27.7913 10.2519 27.5475 10.2519H26.397C27.1069 9.6013 27.5554 8.66999 27.5554 7.63349V5.23124C28.4871 4.13024 28.7818 2.51812 28.0523 1.00968C27.9366 0.770991 27.6471 0.676304 27.4135 0.798179L26.0813 1.49343C25.8071 1.63649 25.4989 1.71224 25.1897 1.71224H22.3363C21.0574 1.71224 20.0826 2.85805 20.2858 4.11974L20.443 5.09418V7.63368C20.443 8.67018 20.8915 9.60149 21.6013 10.2521H20.4525C18.1256 10.2521 16.2338 12.1459 16.2338 14.4709V15.3634H15.1294V15.1365C15.1294 14.361 14.4986 13.7302 13.7231 13.7302H11.6513C10.8758 13.7302 10.245 14.361 10.245 15.1365V15.3634H8.84383V13.6132C8.84383 13.3543 8.63402 13.1445 8.37508 13.1445C8.11614 13.1445 7.90633 13.3543 7.90633 13.6132V15.3634H6.24939C4.95695 15.3634 3.90564 16.4147 3.90564 17.7071C3.90564 19.6712 3.90564 31.4861 3.90564 32.7334C3.90564 32.9921 4.11564 33.2021 4.37439 33.2021C4.63314 33.2021 4.84314 32.9921 4.84314 32.7334V21.8021H43.1569V44.9115C43.155 45.6859 42.525 46.3159 41.7506 46.3177H6.24939C5.47502 46.3159 4.84501 45.6859 4.84314 44.9115V36.4834C4.84314 36.2246 4.63314 36.0146 4.37439 36.0146C4.11564 36.0146 3.90564 36.2246 3.90564 36.4834V44.9115C3.90564 46.2032 4.95733 47.2551 6.24939 47.2551ZM22.3363 2.64955H25.1897C25.6493 2.64955 26.1077 2.53705 26.515 2.32443L27.3926 1.86655C27.6868 2.7943 27.495 3.82818 26.8744 4.58812H21.3109L21.2113 3.97049C21.1 3.27749 21.6353 2.64955 22.3363 2.64955ZM21.3805 7.6333V5.52562H26.6179V7.63349C26.6179 9.0763 25.4451 10.2501 24.0026 10.2519H23.9953C22.5533 10.2499 21.3805 9.07612 21.3805 7.6333ZM33.8081 15.1363C33.8081 14.8779 34.0183 14.6676 34.2769 14.6676H36.349C36.6075 14.6676 36.8177 14.8779 36.8177 15.1363V16.5276C36.8177 16.7859 36.6075 16.9963 36.349 16.9963H34.2769C34.0183 16.9963 33.8081 16.7859 33.8081 16.5276V15.1363ZM11.1825 15.1363C11.1825 14.8779 11.3927 14.6676 11.6513 14.6676H13.7231C13.9817 14.6676 14.1919 14.8779 14.1919 15.1363V16.5276C14.1919 16.7859 13.9817 16.9963 13.7231 16.9963H11.6513C11.3927 16.9963 11.1825 16.7859 11.1825 16.5276V15.1363ZM4.84314 20.8644V17.7069C4.84314 16.9314 5.47389 16.3007 6.24939 16.3007H7.90633V18.0504C7.90633 18.3094 8.11614 18.5192 8.37508 18.5192C8.63402 18.5192 8.84383 18.3094 8.84383 18.0504V16.3007H10.245V16.5276C10.245 17.3031 10.8758 17.9338 11.6513 17.9338H13.7231C14.4986 17.9338 15.1294 17.3031 15.1294 16.5276V16.3007H23.5313V18.0504C23.5313 18.3094 23.7411 18.5192 24 18.5192C24.259 18.5192 24.4688 18.3094 24.4688 18.0504V16.3007H32.8706V16.5276C32.8706 17.3031 33.5014 17.9338 34.2769 17.9338H36.349C37.1245 17.9338 37.7552 17.3031 37.7552 16.5276V16.3007H39.1547V18.0504C39.1547 18.3094 39.3645 18.5192 39.6235 18.5192C39.8824 18.5192 40.0922 18.3094 40.0922 18.0504V16.3007H41.7508C42.5263 16.3007 43.1571 16.9314 43.1571 17.7069V20.8644H4.84314Z" fill="black"/>
<path d="M29.593 11.9054C29.789 12.0616 30.0877 12.0372 30.253 11.8304C30.4126 11.6297 30.3807 11.3335 30.1782 11.1722C29.9812 11.0147 29.6755 11.0504 29.5199 11.2454C29.3572 11.4469 29.389 11.7409 29.593 11.9054Z" fill="black"/>
<path d="M15.7718 24.6255C16.0308 24.6255 16.2406 24.4157 16.2406 24.1567C16.2406 23.8978 16.0308 23.688 15.7718 23.688H11.3969C11.138 23.688 10.9282 23.8978 10.9282 24.1567C10.9282 24.4157 11.138 24.6255 11.3969 24.6255H15.7718Z" fill="black"/>
<path d="M26.1874 24.6255C26.4464 24.6255 26.6562 24.4157 26.6562 24.1567C26.6562 23.8978 26.4464 23.688 26.1874 23.688H21.8123C21.5534 23.688 21.3436 23.8978 21.3436 24.1567C21.3436 24.4157 21.5534 24.6255 21.8123 24.6255H26.1874Z" fill="black"/>
<path d="M36.6029 24.6255C36.8618 24.6255 37.0717 24.4157 37.0717 24.1567C37.0717 23.8978 36.8618 23.688 36.6029 23.688H32.228C31.969 23.688 31.7592 23.8978 31.7592 24.1567C31.7592 24.4157 31.969 24.6255 32.228 24.6255H36.6029Z" fill="black"/>
<path d="M7.90869 27.9181V31.4187C7.90869 32.1931 8.53869 32.825 9.31494 32.825H13.7156C13.9745 32.825 14.1843 32.615 14.1843 32.3562C14.1843 32.0975 13.9745 31.8875 13.7156 31.8875H9.31494C9.05619 31.8875 8.84619 31.6775 8.84619 31.4187V27.9181C8.84619 27.6612 9.05619 27.4493 9.31494 27.4493H18.3236V31.8875H17.4656C17.2068 31.8875 16.9968 32.0975 16.9968 32.3562C16.9968 32.615 17.2068 32.825 17.4656 32.825H38.6849C39.4614 32.825 40.0912 32.1931 40.0912 31.4187V27.9181C40.0912 27.1437 39.4614 26.5118 38.6849 26.5118H9.31494C8.53869 26.5118 7.90869 27.1435 7.90869 27.9181ZM19.2611 27.4493H28.739V31.8875H19.2611V27.4493ZM39.1535 27.9181V31.4187C39.1535 31.6775 38.9437 31.8875 38.6848 31.8875H29.6763V27.4493H38.6848C38.9437 27.4493 39.1535 27.6612 39.1535 27.9181Z" fill="black"/>
<path d="M15.5903 32.825C15.8492 32.825 16.0591 32.6151 16.0591 32.3562C16.0591 32.0973 15.8492 31.8875 15.5903 31.8875C15.3314 31.8875 15.1216 32.0973 15.1216 32.3562C15.1216 32.6151 15.3314 32.825 15.5903 32.825Z" fill="black"/>
<path d="M10.9282 35.1799C10.9282 35.4389 11.138 35.6487 11.3969 35.6487H15.7718C16.0308 35.6487 16.2406 35.4389 16.2406 35.1799C16.2406 34.921 16.0308 34.7112 15.7718 34.7112H11.3969C11.138 34.7112 10.9282 34.921 10.9282 35.1799Z" fill="black"/>
<path d="M21.8123 34.7112C21.5534 34.7112 21.3436 34.921 21.3436 35.1799C21.3436 35.4389 21.5534 35.6487 21.8123 35.6487H26.1874C26.4464 35.6487 26.6562 35.4389 26.6562 35.1799C26.6562 34.921 26.4464 34.7112 26.1874 34.7112H21.8123Z" fill="black"/>
<path d="M32.228 34.7112C31.969 34.7112 31.7592 34.921 31.7592 35.1799C31.7592 35.4389 31.969 35.6487 32.228 35.6487H36.6029C36.8618 35.6487 37.0717 35.4389 37.0717 35.1799C37.0717 34.921 36.8618 34.7112 36.6029 34.7112H32.228Z" fill="black"/>
<path d="M33.4248 41.1604H35.4061C35.6651 41.1604 35.8749 40.9506 35.8749 40.6917C35.8749 40.4327 35.6651 40.2229 35.4061 40.2229H33.4248C33.1659 40.2229 32.9561 40.4327 32.9561 40.6917C32.9561 40.9506 33.1659 41.1604 33.4248 41.1604Z" fill="black"/>
<path d="M7.9079 42.4418C7.9079 43.2173 8.53865 43.8481 9.31415 43.8481H38.6856C39.4611 43.8481 40.0919 43.2173 40.0919 42.4418V38.9418C40.0919 38.1663 39.4611 37.5355 38.6856 37.5355H9.31415C8.53865 37.5355 7.9079 38.1663 7.9079 38.9418V42.4418ZM19.261 42.9106V38.473H28.739V42.9106H19.261ZM39.1544 38.9418V42.4418C39.1544 42.7002 38.9442 42.9106 38.6856 42.9106H29.6763V38.473H38.6856C38.9442 38.473 39.1544 38.6832 39.1544 38.9418ZM8.8454 38.9418C8.8454 38.6834 9.05559 38.473 9.31415 38.473H18.3235V42.9106H9.31415C9.05559 42.9106 8.8454 42.7002 8.8454 42.4418V38.9418Z" fill="black"/>
<path d="M15.2007 28.4816C15.0175 28.2984 14.7209 28.2984 14.5379 28.4816L13.1585 29.8611L12.6308 29.3334C12.4476 29.1503 12.151 29.1504 11.968 29.3334C11.7848 29.5166 11.7848 29.8134 11.968 29.9964L12.8271 30.8558C13.0101 31.0389 13.307 31.0389 13.49 30.8558L15.2009 29.1448C15.3839 28.9614 15.3839 28.6646 15.2007 28.4816Z" fill="black"/>
<path d="M12.827 41.8786C13.01 42.0618 13.3068 42.0618 13.4898 41.8786L15.2007 40.1676C15.3839 39.9846 15.3839 39.6878 15.2007 39.5048C15.0175 39.3216 14.7209 39.3216 14.5379 39.5048L13.1585 40.8843L12.6308 40.3566C12.4476 40.1734 12.151 40.1736 11.968 40.3566C11.7848 40.5398 11.7848 40.8366 11.968 41.0196L12.827 41.8786Z" fill="black"/>
<path d="M25.6163 28.4816C25.4331 28.2984 25.1365 28.2984 24.9535 28.4816L23.574 29.8611L23.0464 29.3334C22.8632 29.1503 22.5666 29.1504 22.3836 29.3334C22.2004 29.5166 22.2004 29.8134 22.3836 29.9964L23.2427 30.8558C23.4257 31.0389 23.7225 31.0389 23.9055 30.8558L25.6165 29.1448C25.7995 28.9614 25.7995 28.6646 25.6163 28.4816Z" fill="black"/>
<path d="M32.7991 29.9963L33.6582 30.8556C33.8414 31.0388 34.138 31.0388 34.321 30.8556L36.032 29.1447C36.2152 28.9617 36.2152 28.6649 36.032 28.4819C35.8488 28.2987 35.5522 28.2987 35.3692 28.4819L33.9897 29.8613L33.4621 29.3337C33.2789 29.1505 32.9823 29.1507 32.7993 29.3337C32.6159 29.5165 32.6159 29.8133 32.7991 29.9963Z" fill="black"/>
<path d="M25.6163 39.5048C25.4331 39.3216 25.1365 39.3216 24.9535 39.5048L23.574 40.8843L23.0464 40.3566C22.8632 40.1734 22.5666 40.1736 22.3836 40.3566C22.2004 40.5398 22.2004 40.8366 22.3836 41.0196L23.2427 41.8789C23.4257 42.0621 23.7225 42.0621 23.9055 41.8789L25.6165 40.168C25.7995 39.9846 25.7995 39.6878 25.6163 39.5048Z" fill="black"/>
</svg>
