<svg width="48" height="48" viewBox="0 0 48 48" fill="none" xmlns="http://www.w3.org/2000/svg">
<g clip-path="url(#clip0_15861_86215)">
<path fill-rule="evenodd" clip-rule="evenodd" d="M36.6619 7.75842H14.5222C14.2108 7.75842 13.9587 7.5063 13.9587 7.19488C13.9587 6.88347 14.2108 6.63135 14.5222 6.63135L36.6619 6.63139C36.9732 6.63139 37.2254 6.88351 37.2254 7.19492C37.2254 7.50633 36.9729 7.75842 36.6619 7.75842Z" fill="#212121"/>
<path fill-rule="evenodd" clip-rule="evenodd" d="M8.4411 33.7623C8.12972 33.7623 7.87756 33.5102 7.87756 33.1988V23.7861C7.87756 23.4747 8.12968 23.2225 8.4411 23.2225C8.75251 23.2225 9.00463 23.4747 9.00463 23.7861V33.1988C9.00459 33.5101 8.75247 33.7623 8.4411 33.7623Z" fill="#212121"/>
<path fill-rule="evenodd" clip-rule="evenodd" d="M37.0579 36.6376H11.3221C11.0107 36.6376 10.7585 36.3854 10.7585 36.074C10.7585 35.7626 11.0107 35.5105 11.3221 35.5105H37.0579C37.3693 35.5105 37.6214 35.7626 37.6214 36.074C37.6214 36.3854 37.369 36.6376 37.0579 36.6376Z" fill="#212121"/>
<path fill-rule="evenodd" clip-rule="evenodd" d="M39.5428 22.2703C39.2314 22.2703 38.9792 22.0182 38.9792 21.7068L38.9793 10.0699C38.9793 9.75851 39.2314 9.50635 39.5428 9.50635C39.8542 9.50635 40.1064 9.75847 40.1064 10.0699L40.1063 21.7068C40.1063 22.0178 39.8542 22.2703 39.5428 22.2703Z" fill="#212121"/>
<path d="M39.5428 10.0698C41.134 10.0698 42.4239 8.78255 42.4239 7.19459C42.4239 5.60663 41.134 4.31934 39.5428 4.31934C37.9517 4.31934 36.6618 5.60663 36.6618 7.19459C36.6618 8.78255 37.9517 10.0698 39.5428 10.0698Z" fill="#DA3127"/>
<path d="M8.44102 38.9491C10.0322 38.9491 11.3221 37.6618 11.3221 36.0739C11.3221 34.4859 10.0322 33.1986 8.44102 33.1986C6.84986 33.1986 5.55998 34.4859 5.55998 36.0739C5.55998 37.6618 6.84986 38.9491 8.44102 38.9491Z" fill="#DA3127"/>
<path d="M16.1859 0.0484619H0.704422V27.3951H16.1859V0.0484619Z" fill="#556F7A"/>
<path d="M16.1854 0.048584H8.44487V27.3952H16.1854V0.048584Z" fill="#465B65"/>
<path d="M6.89859 19.9606H3.76285V23.1243H6.89859V19.9606Z" fill="#5BA8D2"/>
<path fill-rule="evenodd" clip-rule="evenodd" d="M6.36083 19.9606L4.38364 23.1243H6.94045V19.9606H6.36083Z" fill="#3993BB"/>
<path d="M13.085 19.9606H9.94926V23.1243H13.085V19.9606Z" fill="#5BA8D2"/>
<path fill-rule="evenodd" clip-rule="evenodd" d="M12.5477 19.9606L10.5705 23.1243H13.1273V19.9606H12.5477Z" fill="#3993BB"/>
<path d="M6.89859 12.1403H3.76285V15.304H6.89859V12.1403Z" fill="#5BA8D2"/>
<path fill-rule="evenodd" clip-rule="evenodd" d="M6.36083 12.1403L4.38364 15.304H6.94045V12.1403H6.36083Z" fill="#3993BB"/>
<path d="M13.085 12.1403H9.94928V15.304H13.085V12.1403Z" fill="#5BA8D2"/>
<path fill-rule="evenodd" clip-rule="evenodd" d="M12.5477 12.1403L10.5705 15.304H13.1273V12.1403H12.5477Z" fill="#3993BB"/>
<path d="M6.89859 4.31934H3.76285V7.48311H6.89859V4.31934Z" fill="#5BA8D2"/>
<path fill-rule="evenodd" clip-rule="evenodd" d="M6.36083 4.31921L4.38364 7.48299H6.94045V4.31921H6.36083Z" fill="#3993BB"/>
<path d="M13.085 4.31921H9.94926V7.48299H13.085V4.31921Z" fill="#5BA8D2"/>
<path fill-rule="evenodd" clip-rule="evenodd" d="M12.5477 4.31909L10.5705 7.48287H13.1273V4.31909H12.5477Z" fill="#3993BB"/>
<path d="M47.2839 20.6412H31.8024V47.9878H47.2839V20.6412Z" fill="#726658"/>
<path d="M47.2833 20.6412H39.5428V47.9878H47.2833V20.6412Z" fill="#594A42"/>
<path d="M37.9962 24.9121H34.8605V28.0759H37.9962V24.9121Z" fill="#DDE2E4"/>
<path fill-rule="evenodd" clip-rule="evenodd" d="M37.4588 24.912L35.4817 28.0758H38.0384V24.912H37.4588Z" fill="#A7BDC6"/>
<path d="M44.183 24.912H41.0473V28.0758H44.183V24.912Z" fill="#DDE2E4"/>
<path fill-rule="evenodd" clip-rule="evenodd" d="M43.6453 24.9119L41.6682 28.0756H44.2253V24.9119H43.6453Z" fill="#A7BDC6"/>
<path d="M37.9962 32.7324H34.8605V35.8962H37.9962V32.7324Z" fill="#DDE2E4"/>
<path fill-rule="evenodd" clip-rule="evenodd" d="M37.4588 32.7323L35.4817 35.8964H38.0384V32.7323H37.4588Z" fill="#A7BDC6"/>
<path d="M44.183 32.7323H41.0473V35.8961H44.183V32.7323Z" fill="#DDE2E4"/>
<path fill-rule="evenodd" clip-rule="evenodd" d="M43.6453 32.7322L41.6682 35.8962H44.2253V32.7322H43.6453Z" fill="#A7BDC6"/>
<path d="M42.2626 41.5282H36.8235V47.9878H42.2626V41.5282Z" fill="#A97C50"/>
<path d="M42.2623 41.5282H39.5429V47.9878H42.2623V41.5282Z" fill="#8B5E3C"/>
</g>
<defs>
<clipPath id="clip0_15861_86215">
<rect width="48" height="48" fill="white"/>
</clipPath>
</defs>
</svg>
