<svg width="48" height="50" viewBox="0 0 48 50" fill="none" xmlns="http://www.w3.org/2000/svg">
<g clip-path="url(#clip0_15861_86399)">
<path d="M48.12 38.6904H0V48.5714H48.12V38.6904Z" fill="#F5AB35"/>
<path d="M48.12 38.6904H0V43.0952H48.12V38.6904Z" fill="#F9CD86"/>
<path d="M7.20001 38.6904V41.7857" stroke="#414042" stroke-miterlimit="10"/>
<path d="M0.599976 38.6904V41.7857" stroke="#414042" stroke-miterlimit="10"/>
<path d="M13.92 38.6904V41.7857" stroke="#414042" stroke-miterlimit="10"/>
<path d="M20.64 38.6904V41.7857" stroke="#414042" stroke-miterlimit="10"/>
<path d="M27.36 38.6904V41.7857" stroke="#414042" stroke-miterlimit="10"/>
<path d="M40.8 38.6904V41.7857" stroke="#414042" stroke-miterlimit="10"/>
<path d="M34.08 38.6904V41.7857" stroke="#414042" stroke-miterlimit="10"/>
<path d="M47.4 38.6904V41.7857" stroke="#414042" stroke-miterlimit="10"/>
<path d="M5.64001 45.7142H43.92V49.7618H5.64001L0.60001 47.8571C0.48001 47.8571 0.48001 47.738 0.60001 47.619L5.64001 45.7142Z" fill="white"/>
<path d="M43.92 45.7142H5.64001V49.7618H43.92V45.7142Z" fill="#36D7B7"/>
<path d="M43.92 47.738H5.64001V49.7618H43.92V47.738Z" fill="#86E7D4"/>
<path d="M43.92 45.5952H39.12V49.8809H43.92V45.5952Z" fill="white"/>
<path d="M5.64001 45.7142H43.92V49.7618H5.64001L0.60001 47.8571C0.48001 47.8571 0.48001 47.738 0.60001 47.619L5.64001 45.7142Z" stroke="#414042" stroke-miterlimit="10"/>
<path d="M39.12 49.7619V46.1904" stroke="#414042" stroke-miterlimit="10"/>
<path d="M5.64001 49.5238V45.9524" stroke="#414042" stroke-miterlimit="10"/>
<path d="M23.76 5.35706V11.3094" stroke="#414042" stroke-miterlimit="10"/>
<path d="M15 37.8571L24.6 12.9762C24.72 12.5 24.48 12.1428 24 12.1428H21.84C21.36 12.1428 20.88 12.5 20.76 12.9762L15 37.8571C14.88 38.3333 14.76 38.3333 15 37.8571Z" fill="#D1D3D4"/>
<path d="M33.12 37.8571L23.52 12.9762C23.4 12.5 23.64 12.1428 24.12 12.1428H26.28C26.76 12.1428 27.24 12.5 27.36 12.9762L33.12 37.8571C33.36 38.3333 33.24 38.3333 33.12 37.8571Z" fill="#D1D3D4"/>
<path d="M23.76 15.238C25.8145 15.238 27.48 13.5857 27.48 11.5475C27.48 9.50934 25.8145 7.85706 23.76 7.85706C21.7055 7.85706 20.04 9.50934 20.04 11.5475C20.04 13.5857 21.7055 15.238 23.76 15.238Z" fill="#36D7B7"/>
<path d="M23.76 15.238C25.8145 15.238 27.48 13.5857 27.48 11.5475C27.48 9.50934 25.8145 7.85706 23.76 7.85706C21.7055 7.85706 20.04 9.50934 20.04 11.5475C20.04 13.5857 21.7055 15.238 23.76 15.238Z" stroke="#414042" stroke-miterlimit="10"/>
<path d="M23.76 13.0952C24.6216 13.0952 25.32 12.4023 25.32 11.5476C25.32 10.6929 24.6216 10 23.76 10C22.8984 10 22.2 10.6929 22.2 11.5476C22.2 12.4023 22.8984 13.0952 23.76 13.0952Z" fill="#414042"/>
<path d="M24.96 0.119019H22.56V6.54759H24.96V0.119019Z" fill="#A7A9AC"/>
<path d="M23.88 0.119019H22.56V6.54759H23.88V0.119019Z" fill="#D1D3D4"/>
<path d="M32.28 23.0952C30.24 25.119 27.24 26.4285 24.12 26.4285C20.88 26.4285 18 25.119 15.96 23.0952" stroke="#414042" stroke-miterlimit="10"/>
<path d="M40.32 30.238C36.36 34.0476 30.48 36.5476 24.12 36.5476C17.4 36.5476 11.28 33.9285 7.32001 29.7618" stroke="#414042" stroke-miterlimit="10" stroke-dasharray="2 2"/>
<path d="M8.52002 17.3809C9.31531 17.3809 9.96002 16.7414 9.96002 15.9524C9.96002 15.1634 9.31531 14.5238 8.52002 14.5238C7.72473 14.5238 7.08002 15.1634 7.08002 15.9524C7.08002 16.7414 7.72473 17.3809 8.52002 17.3809Z" stroke="#414042" stroke-miterlimit="10"/>
<path d="M40.32 23.6904C41.1153 23.6904 41.76 23.0508 41.76 22.2618C41.76 21.4728 41.1153 20.8333 40.32 20.8333C39.5247 20.8333 38.88 21.4728 38.88 22.2618C38.88 23.0508 39.5247 23.6904 40.32 23.6904Z" stroke="#414042" stroke-miterlimit="10"/>
</g>
<defs>
<clipPath id="clip0_15861_86399">
<rect width="48" height="50" fill="white"/>
</clipPath>
</defs>
</svg>